<svg id="Layer_1" enable-background="new 0 0 512 512" height="512" viewBox="0 0 512 512" width="512" xmlns="http://www.w3.org/2000/svg"><g><g><g><g><g><path d="m182.379 332.845v68.486c0 20.186-16.321 36.55-36.454 36.55-20.133 0-36.454-16.364-36.454-36.55v-143.023z" fill="#ea9955"/><g><path d="m145.974 467.287c-13.606-.023-26.651 5.431-36.21 15.138l-.074.075c-4.233 4.299-11.535 1.294-11.535-4.747v-14.113c0-14.227 11.503-25.76 25.693-25.76h44.154c14.19 0 25.693 15.586 25.693 29.813z" fill="#ffda33"/></g></g><g><g><path d="m236.226 482.56c-9.526-9.747-22.557-15.249-36.168-15.272-13.606-.023-26.651 5.431-36.21 15.138l-.074.075c-4.233 4.299-11.535 1.294-11.535-4.747v-14.114c0-14.227 11.503-25.76 25.693-25.76h44.154c14.19 0 25.693 11.533 25.693 25.76v14.19c0 6.053-7.327 9.053-11.553 4.73z" fill="#ffda33"/></g></g><g><path d="m388.225 361.416c.045-.045.089-.089.133-.133l-175.745-176.13c-11.299-11.329-17.647-16.518-17.647-16.518l-.001-103.35c-.413-21.043-17.546-37.885-38.538-37.885h-68.63c-21.288 0-38.545 17.302-38.545 38.646v47.699l24.288 12.693-.127 77.431c-.039 24.808 9.772 48.611 27.268 66.153l112.786 113.188c33.784 33.903 84.329 40.7 124.843 20.356l5.354 5.309c25.421 25.487 66.579 25.487 92 0z" fill="#f7b681"/><g><path d="m388.225 361.416c.045-.045.088-.089.133-.133l-175.745-176.13c-11.299-11.329-17.647-16.518-17.647-16.518l-.001-103.35c-.413-21.043-17.546-37.886-38.538-37.886h-51.509c20.992 0 38.124 16.842 38.538 37.886l.001 85.551c0 11.396 4.533 22.323 12.598 30.373l213.272 212.866c8.716 8.7 6.095 23.573-5.191 28.502-.075.033-.151.066-.226.098 23.751 10.264 52.342 5.664 71.754-13.8z" fill="#f7a867"/></g><g><path d="m74.29 126.437h-74.29c0-29.68 22.442-59.592 49.252-59.359 0 15.962 12.906 28.901 28.825 28.901h17.133z" fill="#ffda33"/></g></g><path d="m114.701 50.673h-29.056c-2.988 0-5.708 1.723-6.985 4.424l-4.238 8.964c-1.824 3.858-.175 8.464 3.683 10.287 1.067.505 2.191.743 3.297.743 2.895 0 5.671-1.635 6.99-4.426l2.146-4.54h24.163c4.267 0 7.726-3.459 7.726-7.726s-3.459-7.726-7.726-7.726z" fill="#d8853e"/></g></g><g><path d="m353.772 99.389c-25.393-25.46-66.556-25.471-91.964-.034l-.001-.001-.021.022c-.004.004-.009.008-.014.013l.001.001-70.692 72.782c-59.532 59.745 31.713 152.546 92.188 91.912l25.271-25.633 22.284 22.369c25.405 25.472 66.595 25.472 92 0l-1.418-1.422c25.496 24.105 65.649 23.671 90.594-1.34z" fill="#ea9955"/><g fill="#d8853e"><g><path d="m422.924 260.719-56.032-56.077c-3.016-3.018-7.908-3.021-10.927-.005s-3.021 7.908-.005 10.927l54.771 54.815c.001.001 7.367-4.394 12.193-9.66z"/><path d="m311.359 149.056c-3.015-3.019-7.907-3.02-10.927-.004-3.018 3.017-3.02 7.908-.003 10.927l28.262 28.281c1.508 1.51 3.487 2.265 5.465 2.265 1.977 0 3.953-.754 5.462-2.261 3.018-3.017 3.02-7.908.003-10.927z"/></g><path d="m308.535 238.459-24.486-24.506c-3.015-3.018-7.907-3.021-10.927-.004-3.019 3.016-3.021 7.908-.005 10.927l24.557 24.595z"/></g></g></g><path d="m236.463 359.161v42.169c0 20.186-16.321 36.55-36.454 36.55-20.133 0-36.454-16.364-36.454-36.55v-68.212-48.494z" fill="#f7b681"/></g></svg>